<?xml version="1.0" encoding="UTF-8"?>
<svg id="_图层_2" data-name="图层 2" xmlns="http://www.w3.org/2000/svg" xmlns:xlink="http://www.w3.org/1999/xlink" viewBox="0 0 24.56 31.96">
  <defs>
    <style>
      .cls-1 {
        fill: none;
      }

      .cls-1, .cls-2, .cls-3, .cls-4 {
        stroke-width: 0px;
      }

      .cls-2 {
        fill: #0a3b95;
      }

      .cls-3 {
        fill: #fff;
      }

      .cls-5 {
        clip-path: url(#clippath);
      }

      .cls-4 {
        fill: #d7262d;
      }
    </style>
    <clipPath id="clippath">
      <polygon class="cls-1" points=".43 31.71 .43 16.05 3.77 14.91 7.34 16.05 10.97 14.79 13.91 16.05 16.9 14.66 19.64 16.05 21.62 14.85 24.31 16.05 24.31 31.71 12.37 31.71 .43 31.71"/>
    </clipPath>
  </defs>
  <g id="_图层_2-2" data-name="图层 2">
    <g class="cls-5">
      <ellipse class="cls-3" cx="12.37" cy="15.98" rx="11.94" ry="15.73"/>
      <path class="cls-2" d="m23.88,11.79c.28,1.33.43,2.74.43,4.19,0,8.69-5.34,15.73-11.94,15.73-3.29,0-6.28-1.76-8.44-4.6h8.34c.06,0,.12,0,.18,0,1.51,0,2.74-1.23,2.74-2.74s-1.23-2.74-2.74-2.74c-.06,0-.12,0-.18,0h0s-11.05,0-11.05,0c-.51-1.75-.79-3.65-.79-5.64C.43,7.29,5.78.25,12.37.25c3.82,0,7.23,2.37,9.41,6.06h-9.75c-1.4.14-2.5,1.31-2.5,2.74s1.1,2.61,2.5,2.73h0s.25.01.25.01h11.6Z"/>
      <g>
        <path class="cls-4" d="m12.26,11.79h-.22c.07,0,.15,0,.22,0Z"/>
        <path class="cls-4" d="m12.03,6.32c.07,0,.15,0,.22-.01h.02c.08,0,.16,0,.24.01h0s-.26-.01-.26-.01h-.22Z"/>
        <path class="cls-4" d="m12.37.25s-.08,0-.11,0h0s.11,0,.11,0Z"/>
        <path class="cls-4" d="m12.52.25h-.15.15Z"/>
        <path class="cls-4" d="m12.52,11.78h0s-.24.01-.24.01c.08,0,.16,0,.24-.01Z"/>
        <path class="cls-4" d="m23.88,11.79c.28,1.33.43,2.74.43,4.19,0,8.69-5.34,15.73-11.94,15.73-3.29,0-6.28-1.76-8.44-4.6h8.34c.06,0,.12,0,.18,0,1.51,0,2.74-1.23,2.74-2.74s-1.23-2.74-2.74-2.74c-.06,0-.12,0-.18,0h0s-11.05,0-11.05,0h0s11.29,0,11.29,0v-9.83h11.36Z"/>
      </g>
    </g>
    <ellipse class="cls-1" cx="12.37" cy="15.98" rx="11.94" ry="15.73"/>
  </g>
</svg>